<?xml version="1.0" standalone="no"?>
<!DOCTYPE svg PUBLIC "-//W3C//DTD SVG 20010904//EN"
 "http://www.w3.org/TR/2001/REC-SVG-20010904/DTD/svg10.dtd">
<svg version="1.0" xmlns="http://www.w3.org/2000/svg"
 width="512.000000pt" height="512.000000pt" viewBox="0 0 512.000000 512.000000"
 preserveAspectRatio="xMidYMid meet">

<g transform="translate(0.000000,512.000000) scale(0.100000,-0.100000)"
fill="#000000" stroke="none">
<path d="M65 5111 c-11 -5 -29 -19 -40 -31 -20 -22 -20 -36 -20 -2521 l0
-2499 28 -27 27 -28 460 -3 c514 -3 508 -4 536 65 18 41 6 89 -27 119 -20 18
-48 19 -418 24 l-396 5 -3 638 -2 637 215 0 214 0 3 -395 3 -395 28 -27 27
-28 1100 -3 c1224 -3 1146 -7 1176 65 18 41 6 89 -27 119 -20 18 -63 19 -1058
24 l-1036 5 0 745 0 745 212 3 212 2 3 -505 3 -505 28 -27 27 -28 1220 0 1220
0 27 28 28 27 0 579 0 579 -24 26 c-33 35 -85 44 -127 21 -18 -10 -36 -25 -41
-34 -4 -9 -10 -241 -13 -516 l-5 -500 -1065 0 -1065 0 -2 709 c-3 787 1 743
-70 772 -47 20 -97 4 -124 -40 -17 -27 -19 -51 -19 -203 l0 -172 -290 -3 -290
-3 -27 -28 -28 -27 -3 -395 -3 -395 -214 0 -215 0 2 1598 3 1597 533 3 532 2
0 -214 0 -215 -290 -3 -290 -3 -27 -28 -28 -27 0 -579 0 -579 24 -26 c33 -35
85 -44 127 -21 18 10 36 25 41 34 4 9 10 241 13 516 l5 500 709 3 c787 2 743
-2 772 69 20 47 4 97 -40 124 -29 18 -54 19 -419 19 l-387 0 2 213 3 212 1140
5 c627 3 1147 9 1156 13 9 5 24 23 34 41 23 42 14 94 -21 127 l-26 24 -1846 2
c-1016 1 -1856 -2 -1867 -6z"/>
<path d="M4550 5113 c-31 -12 -60 -47 -66 -81 -7 -39 16 -95 45 -109 9 -4 97
-10 196 -13 l180 -5 3 -532 2 -533 -214 0 -215 0 -3 290 -3 290 -28 27 -27 28
-780 3 c-869 3 -827 6 -856 -65 -19 -43 -5 -93 33 -123 24 -18 40 -20 204 -20
l179 0 0 -215 0 -215 -929 -2 -929 -3 -26 -24 c-52 -49 -40 -145 23 -170 18
-8 378 -12 1156 -14 l1130 -2 5 -180 c3 -99 9 -187 13 -196 5 -9 23 -24 41
-34 42 -23 94 -14 127 21 l24 26 0 259 0 259 -28 27 -27 28 -185 3 -185 3 2
212 3 212 425 0 425 0 5 -292 c5 -288 5 -293 28 -315 22 -23 27 -23 315 -28
l292 -5 0 -1705 0 -1705 -1573 -5 -1574 -5 -24 -28 c-43 -50 -28 -131 30 -162
28 -15 166 -16 1663 -13 l1633 3 27 28 28 27 0 2500 0 2500 -28 27 -27 28
-248 2 c-136 1 -254 -1 -262 -4z"/>
<path d="M1985 3191 c-11 -5 -29 -19 -40 -31 -20 -22 -20 -36 -20 -601 l0
-579 28 -27 27 -28 580 0 580 0 27 28 c28 27 28 30 31 166 3 114 1 145 -13
171 -22 43 -75 65 -120 50 -55 -18 -69 -43 -75 -129 l-5 -76 -425 0 -425 0 0
425 0 425 500 5 c275 3 507 9 516 13 9 5 24 23 34 41 23 42 14 94 -21 127
l-26 24 -566 2 c-312 1 -576 -2 -587 -6z"/>
<path d="M4335 2976 c-64 -28 -60 51 -65 -1085 l-5 -1036 -293 -5 -294 -5 -24
-28 c-43 -50 -28 -131 30 -162 27 -14 71 -16 383 -13 l353 3 27 28 28 27 3
1100 c3 1222 7 1147 -63 1176 -41 17 -42 17 -80 0z"/>
</g>
</svg>
